<svg width="54" height="40" viewBox="0 0 54 40" fill="none" xmlns="http://www.w3.org/2000/svg">
<path fill-rule="evenodd" clip-rule="evenodd" d="M0 7.68572C0 3.44101 3.52972 0 7.88385 0C12.238 0 15.7677 3.44102 15.7677 7.68572V9.29068C12.061 9.91834 9.24245 13.0696 9.24245 16.8627V30.7093C8.80109 30.7841 8.34713 30.823 7.88385 30.823C3.52972 30.823 0 27.382 0 23.1373V7.68572ZM25.0101 30.6526V32.3143C25.0101 36.559 21.4804 40 17.1263 40C12.7722 40 9.24245 36.559 9.24245 32.3143V30.7093C12.9492 30.0817 15.7677 26.9304 15.7677 23.1373V9.29068C16.2091 9.21594 16.663 9.17698 17.1263 9.17698C17.6954 9.17698 18.2504 9.23576 18.7852 9.34743V23.1373C18.7852 26.8272 21.4526 29.9098 25.0101 30.6526ZM28.1755 30.6829C27.6879 30.7748 27.1842 30.823 26.6691 30.823C26.1 30.823 25.545 30.7642 25.0101 30.6526V16.8627C25.0101 13.1728 22.3428 10.0902 18.7852 9.34743V7.68572C18.7852 3.44101 22.315 0 26.6691 0C31.0232 0 34.5529 3.44102 34.5529 7.68572V9.31712C30.9193 10.0025 28.1755 13.1202 28.1755 16.8627V30.6829ZM43.9431 30.6829V32.3143C43.9431 36.559 40.4134 40 36.0593 40C31.7052 40 28.1755 36.559 28.1755 32.3143V30.6829C31.809 29.9975 34.5529 26.8798 34.5529 23.1373V9.31712C35.0405 9.22515 35.5441 9.17698 36.0593 9.17698C36.5744 9.17698 37.0781 9.22515 37.5656 9.31712V23.1373C37.5656 26.8798 40.3096 29.9975 43.9431 30.6829ZM43.9431 30.6829C44.4307 30.7748 44.9343 30.823 45.4495 30.823C49.8036 30.823 53.3333 27.382 53.3333 23.1373V7.68572C53.3333 3.44102 49.8036 0 45.4495 0C41.0954 0 37.5656 3.44101 37.5656 7.68572V9.31712C41.1992 10.0025 43.9431 13.1202 43.9431 16.8627V30.6829Z" fill="#69CD34"/>
</svg>
